<svg width="15" height="15" viewBox="0 0 15 15" fill="none" xmlns="http://www.w3.org/2000/svg">
<path id="Vector" d="M8.79802 1.12478L10.118 3.76478C10.298 4.12478 10.778 4.48478 11.178 4.54478L13.568 4.94478C15.098 5.20478 15.458 6.30478 14.358 7.40478L12.498 9.27478C12.188 9.58478 12.008 10.1948 12.108 10.6348L12.638 12.9448C13.058 14.7648 12.088 15.4748 10.478 14.5248L8.23802 13.1948C7.82802 12.9548 7.16802 12.9548 6.75802 13.1948L4.50802 14.5148C2.89802 15.4648 1.92802 14.7548 2.34802 12.9348L2.87802 10.6248C2.97802 10.1948 2.79802 9.58478 2.48802 9.26478L0.63802 7.41478C-0.46198 6.31478 -0.10198 5.20478 1.42802 4.95478L3.81802 4.55478C4.21802 4.48478 4.69802 4.13478 4.87802 3.77478L6.19802 1.13478C6.90802 -0.305219 8.08802 -0.305219 8.79802 1.12478Z" fill="#EACB29"/>
</svg>
